<?xml version="1.0" standalone="no"?>
<!DOCTYPE svg PUBLIC "-//W3C//DTD SVG 20010904//EN"
 "http://www.w3.org/TR/2001/REC-SVG-20010904/DTD/svg10.dtd">
<svg version="1.0" xmlns="http://www.w3.org/2000/svg"
 width="320.000000pt" height="320.000000pt" viewBox="0 0 320.000000 320.000000"
 preserveAspectRatio="xMidYMid meet">
<metadata>
Created by potrace 1.16, written by Peter Selinger 2001-2019
</metadata>
<g transform="translate(0.000000,320.000000) scale(0.100000,-0.100000)"
fill="#000000" stroke="none">
<path d="M578 2739 l-3 -362 -40 -12 c-94 -28 -162 -81 -201 -158 -40 -76 -44
-121 -44 -490 l0 -358 -35 -52 c-62 -92 -75 -153 -75 -362 0 -209 13 -273 75
-365 33 -49 35 -57 35 -136 l0 -84 -55 0 -55 0 0 -130 0 -130 140 0 140 0 0
130 0 130 110 0 110 0 0 -130 0 -130 100 0 100 0 0 130 0 130 110 0 110 0 0
-130 0 -130 100 0 100 0 0 130 0 130 110 0 110 0 0 -130 0 -130 100 0 100 0 0
130 0 130 110 0 110 0 0 -130 0 -130 100 0 100 0 0 130 0 130 110 0 110 0 0
-130 0 -130 100 0 100 0 0 130 0 130 110 0 110 0 0 -130 0 -130 130 0 130 0 0
988 c0 1065 1 1043 -53 1135 -35 59 -72 91 -142 124 l-60 28 -357 3 -358 3 0
159 0 160 50 0 50 0 0 200 0 200 -795 0 -795 0 -2 -361z m712 126 l0 -65 -180
0 -180 0 0 -50 0 -50 130 0 130 0 0 -65 0 -65 -130 0 -130 0 0 -95 0 -95 -90
0 -90 0 0 275 0 275 270 0 270 0 0 -65z m710 0 l0 -65 -180 0 -180 0 0 -50 0
-50 130 0 130 0 0 -65 0 -65 -130 0 -130 0 0 -95 0 -95 -90 0 -90 0 0 275 0
275 270 0 270 0 0 -65z m779 -685 c30 -17 52 -40 68 -69 l23 -44 0 -697 0
-697 -23 -44 c-16 -29 -38 -52 -68 -69 l-44 -25 -507 -3 -508 -3 0 81 0 80 99
0 c265 0 566 96 724 231 l47 41 0 434 0 434 -50 0 -50 0 0 -399 0 -399 -42
-37 c-129 -111 -358 -186 -615 -201 l-113 -7 0 70 c0 38 -7 93 -16 122 -28 95
-136 186 -246 206 -46 9 -61 25 -88 97 -43 115 -147 194 -290 220 l-60 10 0
219 0 219 -50 0 -50 0 0 -220 0 -220 -95 0 -95 0 0 220 0 220 -50 0 -50 0 0
-225 0 -225 -28 0 c-16 0 -51 -7 -78 -15 -27 -8 -52 -15 -56 -15 -5 0 -8 134
-8 297 0 282 1 299 21 340 12 24 32 51 45 60 67 43 46 42 1154 40 l1055 -2 44
-25z m-1660 -786 c33 -9 69 -30 95 -54 40 -37 54 -61 86 -148 17 -45 61 -78
120 -91 101 -22 162 -70 189 -150 21 -64 31 -61 -196 -61 -229 0 -337 -13
-442 -55 -84 -33 -139 -66 -180 -109 l-35 -36 432 0 432 0 0 -80 0 -81 -487 3
c-479 3 -489 3 -544 25 -103 43 -171 110 -210 211 -31 79 -39 274 -14 358 43
148 124 230 268 269 77 20 415 20 486 -1z"/>
<path d="M580 1155 l0 -85 170 0 170 0 0 85 0 85 -170 0 -170 0 0 -85z"/>
</g>
</svg>
